<svg width="160" height="48" viewBox="0 0 160 48" fill="none" xmlns="http://www.w3.org/2000/svg">
<path d="M12.2579 35.4409L15.6299 32.0688L7.54389 23.9828L15.6299 15.8968L12.2579 12.5247L0.799805 23.9828L12.2579 35.4409Z" fill="url(#paint0_linear_4013_727)"/>
<path d="M11.2775 24.0258L17.5141 17.7893L15.6302 15.8968L7.54419 23.9828L15.6302 32.0688L17.4797 30.2194L11.2775 24.0258Z" fill="#6D401B"/>
<path d="M36.2064 36.542L32.8343 33.1699L24.7569 41.2559L16.6709 33.1699L13.2988 36.542L24.7569 48L36.2064 36.542Z" fill="url(#paint1_linear_4013_727)"/>
<path d="M24.7913 37.514L18.5548 31.2775L16.6709 33.1699L24.7569 41.256L32.8343 33.1699L30.9935 31.3205L24.7913 37.514Z" fill="#6D401B"/>
<path d="M24.7828 37.5054L24.7397 41.2387L32.8258 33.1527L30.9763 31.3118L24.7828 37.5054Z" fill="#4C2909"/>
<path d="M37.2988 12.5075L33.9268 15.871L42.0128 23.957L33.9268 32.043L37.2988 35.4151L48.7483 23.957L37.2988 12.5075Z" fill="url(#paint2_linear_4013_727)"/>
<path d="M38.314 23.957L32.0774 30.1936L33.9269 32.043L42.0129 23.957L33.9269 15.871L32.0774 17.7204L38.314 23.957Z" fill="#4C2909"/>
<path d="M13.3333 11.4581L16.7053 14.8301L24.7913 6.74409L32.8773 14.8301L36.2494 11.4581L24.7913 0L13.3333 11.4581Z" fill="url(#paint3_linear_4013_727)"/>
<path d="M24.7913 10.4344L31.0279 16.6796L32.8774 14.8301L24.7913 6.74408L16.7053 14.8301L18.5548 16.671L24.7913 10.4344Z" fill="#6D401B"/>
<path d="M24.8343 10.4774L24.7913 6.74408L32.8773 14.8301L31.0278 16.6796L24.8343 10.4774Z" fill="#4C2909"/>
<path d="M11.2452 23.9868L24.7913 37.5328L38.3373 23.9868L24.7913 10.4408L11.2452 23.9868Z" fill="#351F07"/>
<path d="M59.4924 34.5205L60.8086 34.0301C61.0924 33.9183 61.2989 33.8151 61.4365 33.7205C61.5741 33.6258 61.6602 33.4796 61.7032 33.2903C61.7462 33.1011 61.772 32.8344 61.772 32.4817V16.2237C61.772 15.742 61.7118 15.3893 61.5914 15.1656C61.4709 14.942 61.2043 14.7613 60.7828 14.6065L59.501 14.2108V12.6624H71.8967C74.9935 12.6624 77.3161 13.1527 78.8559 14.1334C80.3957 15.114 81.1613 16.6624 81.1613 18.7957C81.1613 20.2495 80.8 21.4366 80.0774 22.357C79.3548 23.2774 78.3053 23.9742 76.929 24.4473C75.5526 24.9205 73.8064 25.2473 71.6731 25.4194V24.3355L76.2236 25.5914C77.101 25.8151 77.8236 26.1936 78.3828 26.7441C78.9419 27.2946 79.4064 28.086 79.7849 29.1183L81.0064 32.2839C81.1785 32.7914 81.3935 33.1871 81.6516 33.4882C81.901 33.7807 82.2623 34.0129 82.7268 34.1678L83.5871 34.5291V36.043H75.2516L73.0064 29.0839C72.7828 28.4215 72.5591 27.9054 72.3182 27.5355C72.0774 27.1656 71.7763 26.8731 71.4322 26.6581C71.0795 26.4516 70.6322 26.3226 70.0817 26.2796L68.4645 26.185V32.4817C68.4645 32.7914 68.4903 33.0409 68.5505 33.2387C68.6021 33.4366 68.6967 33.6 68.8172 33.7291C68.9376 33.8581 69.1612 33.9699 69.4967 34.0559L70.8129 34.5205V36.0344H59.544V34.5205H59.4924ZM72.7483 23.3979C73.2989 23.1226 73.7118 22.6581 73.9871 22.0129C74.2623 21.3678 74.4 20.4387 74.4 19.2258C74.4 18.0129 74.2365 17.1441 73.9096 16.542C73.5828 15.9398 73.1268 15.5269 72.5591 15.3032C71.9914 15.0796 71.243 14.9764 70.3139 14.9764H68.4387V24.043L70.5806 23.914C71.4838 23.8452 72.2064 23.6817 72.757 23.4065L72.7483 23.3979Z" fill="#754A31"/>
<path d="M89.488 35.1828C87.7504 34.1935 86.3999 32.7742 85.4364 30.9161C84.473 29.0581 83.9827 26.8817 83.9827 24.3699C83.9827 21.8581 84.4644 19.7075 85.4192 17.8408C86.3741 15.9742 87.7332 14.5376 89.488 13.5398C91.2429 12.5419 93.2558 12.043 95.5182 12.043C97.7805 12.043 99.8536 12.5419 101.6 13.5398C103.346 14.5376 104.697 15.9656 105.651 17.8236C106.606 19.6817 107.088 21.8581 107.088 24.3699C107.088 26.8817 106.606 29.0322 105.651 30.8989C104.697 32.7656 103.346 34.1935 101.6 35.1828C99.8536 36.172 97.8235 36.6624 95.5182 36.6624C93.2128 36.6624 91.2257 36.172 89.488 35.1828ZM98.0472 33.6946C98.6924 33.1871 99.1913 32.215 99.544 30.7613C99.8967 29.3075 100.069 27.2086 100.069 24.4645C100.069 21.7204 99.8966 19.6387 99.5612 18.1505C99.2171 16.671 98.7268 15.6559 98.0816 15.114C97.4364 14.572 96.5848 14.3054 95.5268 14.3054C94.4687 14.3054 93.6257 14.5634 92.9891 15.0796C92.3526 15.5957 91.8622 16.5763 91.5182 18.0129C91.1741 19.4495 91.0106 21.5312 91.0106 24.2581C91.0106 26.9849 91.1827 29.1183 91.5182 30.5892C91.8622 32.0602 92.3612 33.0753 93.0149 33.6258C93.6773 34.1763 94.5117 34.4516 95.5182 34.4516C96.5246 34.4516 97.3934 34.2021 98.0386 33.6946H98.0472Z" fill="#754A31"/>
<path d="M115.131 35.1828C113.393 34.1935 112.043 32.7742 111.079 30.9161C110.116 29.0581 109.626 26.8817 109.626 24.3699C109.626 21.8581 110.107 19.7075 111.062 17.8408C112.017 15.9742 113.376 14.5376 115.131 13.5398C116.886 12.5419 118.899 12.043 121.161 12.043C123.424 12.043 125.497 12.5419 127.243 13.5398C128.989 14.5376 130.34 15.9656 131.295 17.8236C132.249 19.6817 132.731 21.8581 132.731 24.3699C132.731 26.8817 132.249 29.0322 131.295 30.8989C130.34 32.7656 128.989 34.1935 127.243 35.1828C125.497 36.172 123.467 36.6624 121.161 36.6624C118.856 36.6624 116.869 36.172 115.131 35.1828ZM123.69 33.6946C124.335 33.1871 124.834 32.215 125.187 30.7613C125.54 29.3075 125.712 27.2086 125.712 24.4645C125.712 21.7204 125.54 19.6387 125.204 18.1505C124.86 16.671 124.37 15.6559 123.725 15.114C123.079 14.572 122.228 14.3054 121.17 14.3054C120.112 14.3054 119.269 14.5634 118.632 15.0796C117.996 15.5957 117.505 16.5763 117.161 18.0129C116.817 19.4495 116.654 21.5312 116.654 24.2581C116.654 26.9849 116.826 29.1183 117.161 30.5892C117.505 32.0602 118.004 33.0753 118.658 33.6258C119.32 34.1763 120.155 34.4516 121.161 34.4516C122.168 34.4516 123.036 34.2021 123.682 33.6946H123.69Z" fill="#754A31"/>
<path d="M134.813 34.5205L136.129 34.0301C136.37 33.9183 136.559 33.8237 136.705 33.7377C136.852 33.6516 136.946 33.514 136.998 33.3248C137.05 33.1355 137.084 32.8602 137.084 32.4817V16.2237C137.084 15.742 137.024 15.3893 136.903 15.1656C136.783 14.942 136.516 14.7613 136.095 14.6065L134.813 14.2108V12.6624H146.082V14.2108L144.731 14.6065C144.49 14.7183 144.301 14.8215 144.155 14.9161C144.009 15.0108 143.905 15.1656 143.845 15.3635C143.776 15.5613 143.751 15.8452 143.751 16.2237V32.4731C143.751 32.9807 143.819 33.3334 143.948 33.5312C144.078 33.7291 144.344 33.8925 144.74 34.0215L146.09 34.5118V36.0258H134.822V34.5118L134.813 34.5205ZM144.172 24.0688L146.615 20.9032C147.673 19.6301 148.585 18.5205 149.351 17.5742C149.789 16.9807 150.099 16.5334 150.271 16.2409C150.443 15.9484 150.538 15.7075 150.538 15.5355C150.538 15.3377 150.478 15.1742 150.357 15.0452C150.237 14.9161 150.03 14.7785 149.746 14.6495L148.559 14.2194V12.671H158.151V14.2194L157.127 14.5463C156.267 14.8301 155.346 15.3721 154.357 16.1807C153.368 16.9807 152.267 18.0215 151.062 19.2946L150.108 20.4129C150.022 20.5248 149.944 20.6194 149.893 20.6968C149.841 20.7742 149.807 20.8774 149.807 21.0065C149.807 21.1355 149.875 21.3334 150.022 21.5828C150.168 21.8323 150.391 22.2108 150.701 22.7183L150.933 23.114L156.929 33.0323C157.127 33.342 157.316 33.5656 157.505 33.7118C157.695 33.8581 157.953 33.9957 158.28 34.1248L159.2 34.5205V36.0344H150.89L144.164 24.0688H144.172Z" fill="#754A31"/>
<defs>
<linearGradient id="paint0_linear_4013_727" x1="9.61081" y1="5.40092" x2="7.50014" y2="39.6158" gradientUnits="userSpaceOnUse">
<stop stop-color="#B07C4A"/>
<stop offset="1" stop-color="#834627"/>
</linearGradient>
<linearGradient id="paint1_linear_4013_727" x1="26.6058" y1="6.49584" x2="24.5012" y2="40.7046" gradientUnits="userSpaceOnUse">
<stop stop-color="#B07C4A"/>
<stop offset="1" stop-color="#834627"/>
</linearGradient>
<linearGradient id="paint2_linear_4013_727" x1="42.1104" y1="7.36564" x2="40.0058" y2="41.5744" gradientUnits="userSpaceOnUse">
<stop stop-color="#B07C4A"/>
<stop offset="1" stop-color="#834627"/>
</linearGradient>
<linearGradient id="paint3_linear_4013_727" x1="25.1095" y1="6.3255" x2="22.9988" y2="40.5282" gradientUnits="userSpaceOnUse">
<stop stop-color="#B07C4A"/>
<stop offset="1" stop-color="#834627"/>
</linearGradient>
</defs>
</svg>
